# AST/ASF file generated using VICON BodyLanguage
# -----------------------------------------------
:version 1.10
:name VICON
:units
  mass 1.0
  length 0.45
  angle deg
:documentation
   .ast/.asf automatically generated from VICON data using
   VICON BodyBuilder and BodyLanguage model FoxedUp or BRILLIANT.MOD
:root
   order TX TY TZ RX RY RZ
   axis XYZ
   position 0 0 0  
   orientation 0 0 0 
:bonedata
  begin
     id 1 
     name lhipjoint
     direction 0.588788 -0.725889 0.355548 
     length 2.37778 
     axis 0 0 0  XYZ
  end
  begin
     id 2 
     name lfemur
     direction 0.34202 -0.939693 0  
     length 6.86393  
     axis 0 0 20  XYZ
    dof rx ry rz
    limits (-160.0 20.0)
           (-70.0 70.0)
           (-60.0 70.0)
  end
  begin
     id 3 
     name ltibia
     direction 0.34202 -0.939693 0   
     length 7.32851   
     axis 0 0 20   XYZ
    dof rx
    limits (-10.0 170.0)
  end
  begin
     id 4 
     name lfoot
     direction 0.0626533 -0.172138 0.983078   
     length 1.98929   
     axis -90 7.62852e-016 20   XYZ
    dof rx rz
    limits (-45.0 90.0)
           (-70.0 20.0)
  end
  begin
     id 5 
     name ltoes
     direction 1.53647e-011 -4.21734e-011 1   
     length 1.00479   
     axis -90 7.62852e-016 20   XYZ
    dof rx
    limits (-90.0 20.0)
  end
  begin
     id 6 
     name rhipjoint
     direction -0.59141 -0.724168 0.354705   
     length 2.38343  
     axis 0 0 0  XYZ 
  end
  begin
     id 7 
     name rfemur
     direction -0.34202 -0.939693 0   
     length 6.95589   
     axis 0 0 -20   XYZ
    dof rx ry rz
    limits (-160.0 20.0)
           (-70.0 70.0)
           (-70.0 60.0)
  end
  begin
     id 8 
     name rtibia
     direction -0.34202 -0.939693 0   
     length 7.32327   
     axis 0 0 -20   XYZ
    dof rx
    limits (-10.0 170.0)
 end
 begin
     id 9 
     name rfoot
     direction -0.0660461 -0.18146 0.981178   
     length 1.85272  
     axis -90 -7.62852e-016 -20   XYZ
    dof rx rz
    limits (-45.0 90.0)
           (-20.0 70.0)
  end
  begin
     id 10 
     name rtoes
     direction -1.53586e-011 -4.21988e-011 1   
     length 0.93746   
     axis -90 -7.62852e-016 -20   XYZ
    dof rx
    limits (-90.0 20.0)
  end
  begin
     id 11 
     name lowerback
     direction -0.0107982 0.991059 0.13299   
     length 1.98691   
     axis 0 0 0   XYZ
    dof rx ry rz
    limits (-20.0 45.0)
           (-30.0 30.0)
           (-30.0 30.0)
  end
  begin
     id 12 
     name upperback
     direction 0.0076296 0.999916 0.0104576   
     length 1.99501   
     axis 0 0 0   XYZ
    dof rx ry rz
    limits (-20.0 45.0)
           (-30.0 30.0)
           (-30.0 30.0)
  end
  begin
     id 13 
     name thorax
     direction 0.01176 0.998615 -0.0512909   
     length 2.03144   
     axis 0 0 0   XYZ
    dof rx ry rz
    limits (-20.0 45.0)
           (-30.0 30.0)
           (-30.0 30.0)
  end
  begin
     id 14 
     name lowerneck
     direction -0.0171909 0.999644 0.0204011   
     length 1.71818   
     axis 0 0 0   XYZ
    dof rx ry rz
    limits (-20.0 45.0)
           (-30.0 30.0)
           (-30.0 30.0)
  end
  begin
     id 15 
     name upperneck
     direction 0.0250902 0.997482 -0.0663316   
     length 1.66199   
     axis 0 0 0   XYZ
    dof rx ry rz
    limits (-20.0 45.0)
           (-30.0 30.0)
           (-30.0 30.0)
  end
  begin
     id 16
     name head
     direction 0.00881535 0.99956 -0.0283365  
     length 1.81545  
     axis 0 0 0   XYZ
    dof rx ry rz
    limits (-20.0 45.0)
           (-30.0 30.0)
           (-30.0 30.0)
  end
  begin
     id 17 
     name lclavicle
     direction 0.840411 0.486876 -0.238035  
     length 3.30409  
     axis 0 0 0   XYZ
    dof ry rz
    limits (-20.0 10.0)
           (0.0 20.0)
  end
  begin
     id 18 
     name lhumerus
     direction 1 -4.48977e-011 -5.16239e-027   
     length 4.62672   
     axis 180 -30 -90   XYZ
    dof rx ry rz
    limits (-60.0 90.0)
           (-90.0 90.0)
           (-90.0 90.0)
  end
  begin
     id 19
     name lradius
     direction 1 -4.48977e-011 -8.71171e-027   
     length 3.11018   
     axis 180 -30 -90   XYZ
    dof rx
    limits (-10.0 170.0)
  end
  begin
     id 20
     name lwrist
     direction 1 -4.48912e-011 -1.03764e-026   
     length 1.55509   
     axis 9.09556e-015 90 90   XYZ
    dof ry
    limits (-180.0 0.0)
 end
  begin
     id 21 
     name lhand
     direction 1 -4.49072e-011 -2.07528e-026   
     length 0.743834   
     axis 1.3242e-014 90 90   XYZ
    dof rx rz
    limits (-90.0 90.0)
           (-45.0 45.0)
  end
  begin
     id 22 
     name lfingers
     direction 1 -4.48909e-011 -4.15056e-026   
     length 0.599698   
     axis 2.64841e-014 90 90   XYZ
    dof rx
    limits (0.0 90.0)
  end
  begin
     id 23
     name lthumb
     direction 0.707107 -6.35013e-011 0.707107   
     length 0.86105   
     axis -90 45 2.85299e-015   XYZ
    dof rx rz
    limits (-45.0 45.0)
           (-45.0 45.0)
  end
  begin
     id 24 
     name rclavicle
     direction -0.835208 0.500237 -0.228452   
     length 3.2716  
     axis 0 0 0   XYZ 
    dof ry rz
    limits (-10.0 20.0)
           (-20.0 0.0)
  end
  begin
     id 25 
     name rhumerus
     direction -1 -4.48978e-011 -5.1953e-028  
     length 4.55919   
     axis 180 30 90   XYZ
    dof rx ry rz
    limits (-90.0 60.0)
           (-90.0 90.0)
           (-90.0 90.0)
  end
  begin
     id 26 
     name rradius
     direction -1 -4.48961e-011 -5.99546e-027   
     length 3.22748   
     axis 180 30 90   XYZ
    dof rx
    limits (-10.0 170.0)
  end
  begin
     id 27 
     name rwrist
     direction -1 -4.48986e-011 -1.03764e-026   
     length 1.61374   
     axis 9.09556e-015 -90 -90   XYZ
    dof ry
    limits (-180.0 0.0)
  end
  begin
     id 28
     name rhand
     direction -1 -4.4899e-011 -2.07528e-026   
     length 0.700882   
     axis 1.3242e-014 -90 -90   XYZ
    dof rx rz
    limits (-90.0 90.0)
           (-45.0 45.0)
  end
  begin
     id 29
     name rfingers
     direction -1 -4.48991e-011 -4.15056e-026   
     length 0.565069   
     axis 2.64841e-014 -90 -90   XYZ
    dof rx
    limits (0.0 90.0)
  end
  begin
     id 30
     name rthumb
     direction -0.707107 -6.34804e-011 0.707107   
     length 0.811329   
     axis -90 -45 -2.85299e-015   XYZ
    dof rx rz
    limits (-45.0 45.0)
           (-45.0 45.0)
  end
:hierarchy
  begin
    root lhipjoint rhipjoint lowerback
    lhipjoint lfemur
    lfemur ltibia
    ltibia lfoot
    lfoot ltoes
    rhipjoint rfemur
    rfemur rtibia
    rtibia rfoot
    rfoot rtoes
    lowerback upperback
    upperback thorax
    thorax lowerneck lclavicle rclavicle
    lowerneck upperneck
    upperneck head
    lclavicle lhumerus
    lhumerus lradius
    lradius lwrist
    lwrist lhand lthumb
    lhand lfingers
    rclavicle rhumerus
    rhumerus rradius
    rradius rwrist
    rwrist rhand rthumb
    rhand rfingers
  end

#!OML:ASF F:\VICON\USERDATA\INSTALL\SteveWalk\SteveWalk.ASF
:FULLY-SPECIFIED
:DEGREES
193
root -0.0469495 16.3479 0.370567 16.2203 -1.30239 3.65686
lowerback -13.9336 -0.0911147 -5.23108
upperback -5.31426 0.626912 -1.89263
thorax 2.16402 0.344538 1.06785
lowerneck -6.33928 -0.981362 -0.855246
upperneck 9.82606 -1.73947 4.76235
head 4.45788 -0.653339 1.66814
rclavicle -1.71452e-015 5.1684e-015
rhumerus -43.3395 -4.48941 -85.4417
rradius 37.6602
rwrist -11.1641
rhand -16.1731 -36.6839
rfingers 7.12502
rthumb 10.0331 293.575
lclavicle -1.71452e-015 5.1684e-015
lhumerus -46.7618 29.1993 60.9367
lradius 15.5252
lwrist -22.4563
lhand -16.5143 -12.6903
lfingers 7.12502
lthumb 9.70399 17.0662
rfemur -35.6589 -5.94322 16.6649
rtibia 74.5943
rfoot -7.25224 2.32777
rtoes -9.48197
lfemur -34.0133 -1.77793 -26.4377
ltibia 37.9254
lfoot -18.293 0.940819
ltoes -3.80494
194
root -0.0379381 16.3522 0.566662 16.1927 -1.25951 3.38506
lowerback -13.8453 -0.111022 -4.83973
upperback -5.43896 0.533575 -1.75966
thorax 1.99537 0.300699 0.971936
lowerneck -5.78567 -0.943028 -0.850194
upperneck 9.82724 -1.68548 4.76366
head 4.34422 -0.633454 1.66904
rclavicle 4.47887e-015 8.34896e-015
rhumerus -44.2526 -5.12864 -85.1756
rradius 35.8695
rwrist -10.5151
rhand -16.0611 -36.9916
rfingers 7.12502
rthumb 10.1412 293.273
lclavicle 4.47887e-015 8.34896e-015
lhumerus -44.7614 27.829 63.3657
lradius 15.7436
lwrist -21.2673
lhand -16.5672 -12.911
lfingers 7.12502
lthumb 9.65291 16.8479
rfemur -37.2053 -5.87815 17.2095
rtibia 73.9654
rfoot -8.2268 2.05557
rtoes -9.77352
lfemur -33.0199 -1.6354 -26.2119
ltibia 37.6949
lfoot -18.9786 1.08665
ltoes -4.64797
195
root -0.0346357 16.3496 0.765702 16.026 -1.3265 3.30048
lowerback -13.8105 -0.167502 -4.78206
upperback -5.28149 0.450039 -1.58755
thorax 2.14582 0.254661 1.10713
lowerneck -5.95255 -0.864935 -1.03496
upperneck 9.9697 -1.57333 4.81028
head 4.42922 -0.579133 1.72754
rclavicle 1.12779e-014 -2.78299e-015
rhumerus -44.6053 -5.5467 -84.8639
rradius 33.9048
rwrist -10.0342
rhand -16.0993 -36.4478
rfingers 7.12502
rthumb 10.1043 293.815
lclavicle 1.12779e-014 -2.78299e-015
lhumerus -42.5878 27.1373 65.4664
lradius 15.7841
lwrist -20.601
lhand -16.8017 -13.871
lfingers 7.12502
lthumb 9.42666 15.8982
rfemur -38.4267 -5.69742 17.561
rtibia 73.1456
rfoot -9.34458 1.494
rtoes -10.9507
lfemur -31.8987 -1.43118 -26.1907
ltibia 37.514
lfoot -19.6874 1.22957
ltoes -4.15768
196
root -0.0334765 16.3482 0.964483 15.7985 -1.2586 3.2531
lowerback -13.5254 -0.233161 -4.69752
upperback -5.18318 0.334676 -1.47424
thorax 2.10212 0.196917 1.15977
lowerneck -6.00541 -0.835923 -1.17114
upperneck 10.0131 -1.52886 4.87085
head 4.45716 -0.558405 1.77668
rclavicle 2.43511e-015 -3.97569e-016
rhumerus -45.1004 -6.00491 -84.5529
rradius 31.9656
rwrist -9.49548
rhand -16.2646 -35.5829
rfingers 7.12502
rthumb 9.94488 294.672
lclavicle 2.43511e-015 -3.97569e-016
lhumerus -40.2608 24.9482 68.37
lradius 16.4279
lwrist -18.4886
lhand -16.9047 -14.0974
lfingers 7.12502
lthumb 9.32727 15.6762
rfemur -39.4283 -5.67124 17.9172
rtibia 72.1153
rfoot -10.4115 0.719128
rtoes -12.8195
lfemur -30.767 -1.25738 -26.1872
ltibia 37.4053
lfoot -20.346 1.18118
ltoes -4.33673
197
root -0.0290706 16.3379 1.16268 15.7313 -1.21457 3.06587
lowerback -13.2825 -0.261221 -4.43204
upperback -5.25754 0.243045 -1.3622
thorax 1.90034 0.154559 1.1132
lowerneck -5.70657 -0.835754 -1.14756
upperneck 9.987 -1.52593 4.838
head 4.38608 -0.561776 1.7595
rclavicle -9.75287e-016 4.77083e-015
rhumerus -45.9881 -6.50198 -84.2266
rradius 30.3575
rwrist -9.14498
rhand -16.6416 -35.0145
rfingers 7.12502
rthumb 9.58116 295.223
lclavicle -9.75287e-016 4.77083e-015
lhumerus -38.3 22.2643 71.1112
lradius 17.3579
lwrist -16.1739
lhand -17.0141 -13.9634
lfingers 7.12502
lthumb 9.22176 15.815
rfemur -40.6518 -5.56615 18.4132
rtibia 70.9137
rfoot -11.4088 -0.0585888
rtoes -13.4704
lfemur -29.79 -0.959994 -26.0586
ltibia 37.2984
lfoot -21.0139 1.00729
ltoes -4.76324
